<svg t="1645085868255" class="icon" viewBox="0 0 1024 1024" version="1.1" xmlns="http://www.w3.org/2000/svg" p-id="3462" width="512" height="512"><path d="M1011.456 558.08c-30.5664-93.3376-124.8768-161.0752-223.232-161.9968-66.9184-0.512-122.8288 25.0368-169.4208 70.144-35.328 34.304-67.4816 71.5264-99.9424 108.544l-76.288-69.3248 43.8784-47.0016 9.8304-10.5984 31.744-34.9184 42.24-45.568-23.9104-22.7328-6.2976-5.7856-4.7616-4.4544-22.8864-21.3504L505.9584 307.2 382.7712 440.3712c-5.632 0-12.3904-4.4032-24.32-11.3664a236.8 236.8 0 0 0-294.912 43.5712C10.5472 529.2032-8.704 597.504 3.5328 674.4576c16.4864 106.1888 117.9648 193.8432 226.048 195.8912 73.3184 1.536 133.6832-25.4464 183.296-77.568 32.7168-34.6112 64.512-70.144 96.4608-105.3696 44.288-48.4864 88.32-97.3312 132.7104-145.7664 20.6336-22.784 41.9328-44.3904 69.3248-59.2896 76.3392-41.5744 180.1216-8.8064 223.9488 70.2976 59.904 107.776-19.6608 248.3712-143.4624 249.5488-58.5216 0.6144-109.6704-20.6336-155.136-55.9616-8.96-6.8096-14.08-6.7584-21.8624 1.28-36.864 37.4272-74.1376 74.0864-111.2576 111.104-2.6624 2.56-7.168 4.5056-6.144 9.6768 3.1744 3.072 7.0144 1.792 10.4448 1.792h287.1296a207.872 207.872 0 0 0 55.2448-8.5504 236.8512 236.8512 0 0 0 173.0048-208.896 235.1616 235.1616 0 0 0-11.8272-94.72v0.1024zM349.3888 760.3712c-66.2528 60.2624-173.9264 54.784-235.008-10.7008a169.1648 169.1648 0 0 1-10.0352-220.3136 171.6224 171.6224 0 0 1 217.3952-44.0832c7.68 4.2496 10.8544 7.5776 8.5504 11.8272l-16.0256 17.408-102.7072 111.2576-1.024 1.024 20.992 19.1488 30.5152 28.0576 13.6704 12.0832 118.016-127.744 76.9024 70.144c-1.8432 2.1504-3.6864 4.096-5.5808 6.0928-38.7072 41.728-73.2672 87.3472-115.712 125.5936" fill="#F39800" p-id="3463"></path><path d="M322.56 341.8112c4.4032-73.0112 38.7072-124.928 99.7376-152.2688 65.1264-29.696 126.4128-17.152 178.9952 35.1744 15.9744 16.128 28.7232 35.6352 37.4784 57.344 8.704 21.7088 13.2096 45.1072 13.2608 68.8128 0 2.56 0.256 5.0688 0.8192 7.5264L716.8 333.312a17.7152 17.7152 0 0 0-0.512-2.4576 206.4896 206.4896 0 0 0-17.7664-77.6192C636.5696 108.032 480.768 58.0096 357.12 145.92c-60.928 43.3152-94.8224 106.752-101.0688 186.5216v1.1776l65.024 20.992c0.4096-3.072 0.6144-7.2704 1.024-12.8" fill="#1480C2" p-id="3464"></path></svg>